<mxfile host="app.diagrams.net" agent="Mozilla/5.0 (Macintosh; Intel Mac OS X 10_15_7) AppleWebKit/605.1.15 (KHTML, like Gecko) Version/18.3 Safari/605.1.15" version="26.1.3">
  <diagram id="C5RBs43oDa-KdzZeNtuy" name="Page-1">
    <mxGraphModel dx="1043" dy="668" grid="1" gridSize="10" guides="1" tooltips="1" connect="1" arrows="1" fold="1" page="1" pageScale="1" pageWidth="827" pageHeight="1169" math="0" shadow="0">
      <root>
        <mxCell id="WIyWlLk6GJQsqaUBKTNV-0" />
        <mxCell id="WIyWlLk6GJQsqaUBKTNV-1" parent="WIyWlLk6GJQsqaUBKTNV-0" />
        <mxCell id="ftjl0fwhTUzBAWV4eIJw-33" value="&lt;span style=&quot;caret-color: rgb(11, 79, 121); color: rgb(11, 79, 121); font-family: Menlo; background-color: rgb(255, 255, 255);&quot;&gt;PersonalProfileDetails&lt;/span&gt;" style="swimlane;fontStyle=0;childLayout=stackLayout;horizontal=1;startSize=26;fillColor=none;horizontalStack=0;resizeParent=1;resizeParentMax=0;resizeLast=0;collapsible=1;marginBottom=0;whiteSpace=wrap;html=1;" vertex="1" parent="WIyWlLk6GJQsqaUBKTNV-1">
          <mxGeometry x="190" y="147" width="190" height="182" as="geometry" />
        </mxCell>
        <mxCell id="ftjl0fwhTUzBAWV4eIJw-34" value="+&amp;nbsp;&lt;span style=&quot;color: rgb(15, 104, 160); font-family: Menlo; background-color: rgb(255, 255, 255);&quot;&gt;emiratesId&lt;/span&gt;:&amp;nbsp;&lt;span style=&quot;color: rgb(57, 0, 160); font-family: Menlo; background-color: rgb(255, 255, 255);&quot;&gt;String&lt;/span&gt;" style="text;strokeColor=none;fillColor=none;align=left;verticalAlign=top;spacingLeft=4;spacingRight=4;overflow=hidden;rotatable=0;points=[[0,0.5],[1,0.5]];portConstraint=eastwest;whiteSpace=wrap;html=1;" vertex="1" parent="ftjl0fwhTUzBAWV4eIJw-33">
          <mxGeometry y="26" width="190" height="26" as="geometry" />
        </mxCell>
        <mxCell id="ftjl0fwhTUzBAWV4eIJw-35" value="+&amp;nbsp;&lt;span style=&quot;color: rgb(15, 104, 160); font-family: Menlo; background-color: rgb(255, 255, 255);&quot;&gt;title&lt;/span&gt;:&amp;nbsp;&lt;span style=&quot;color: rgb(28, 70, 74); font-family: Menlo; background-color: rgb(255, 255, 255);&quot;&gt;ProfileName&lt;/span&gt;" style="text;strokeColor=none;fillColor=none;align=left;verticalAlign=top;spacingLeft=4;spacingRight=4;overflow=hidden;rotatable=0;points=[[0,0.5],[1,0.5]];portConstraint=eastwest;whiteSpace=wrap;html=1;" vertex="1" parent="ftjl0fwhTUzBAWV4eIJw-33">
          <mxGeometry y="52" width="190" height="26" as="geometry" />
        </mxCell>
        <mxCell id="ftjl0fwhTUzBAWV4eIJw-36" value="+&amp;nbsp;&lt;span style=&quot;color: rgb(15, 104, 160); font-family: Menlo; background-color: rgb(255, 255, 255);&quot;&gt;firstName&lt;/span&gt;:&amp;nbsp;&lt;span style=&quot;caret-color: rgb(28, 70, 74); color: rgb(28, 70, 74); font-family: Menlo; background-color: rgb(255, 255, 255);&quot;&gt;ProfileName&lt;/span&gt;" style="text;strokeColor=none;fillColor=none;align=left;verticalAlign=top;spacingLeft=4;spacingRight=4;overflow=hidden;rotatable=0;points=[[0,0.5],[1,0.5]];portConstraint=eastwest;whiteSpace=wrap;html=1;" vertex="1" parent="ftjl0fwhTUzBAWV4eIJw-33">
          <mxGeometry y="78" width="190" height="26" as="geometry" />
        </mxCell>
        <mxCell id="ftjl0fwhTUzBAWV4eIJw-37" value="+&amp;nbsp;&lt;span style=&quot;color: rgb(15, 104, 160); font-family: Menlo; background-color: rgb(255, 255, 255);&quot;&gt;secondName&lt;/span&gt;:&amp;nbsp;&lt;span style=&quot;caret-color: rgb(28, 70, 74); color: rgb(28, 70, 74); font-family: Menlo; background-color: rgb(255, 255, 255);&quot;&gt;ProfileName&lt;/span&gt;" style="text;strokeColor=none;fillColor=none;align=left;verticalAlign=top;spacingLeft=4;spacingRight=4;overflow=hidden;rotatable=0;points=[[0,0.5],[1,0.5]];portConstraint=eastwest;whiteSpace=wrap;html=1;" vertex="1" parent="ftjl0fwhTUzBAWV4eIJw-33">
          <mxGeometry y="104" width="190" height="26" as="geometry" />
        </mxCell>
        <mxCell id="ftjl0fwhTUzBAWV4eIJw-38" value="+&amp;nbsp;&lt;span style=&quot;color: rgb(15, 104, 160); font-family: Menlo; background-color: rgb(255, 255, 255);&quot;&gt;fullName&lt;/span&gt;:&amp;nbsp;&lt;span style=&quot;caret-color: rgb(28, 70, 74); color: rgb(28, 70, 74); font-family: Menlo; background-color: rgb(255, 255, 255);&quot;&gt;ProfileName&lt;/span&gt;" style="text;strokeColor=none;fillColor=none;align=left;verticalAlign=top;spacingLeft=4;spacingRight=4;overflow=hidden;rotatable=0;points=[[0,0.5],[1,0.5]];portConstraint=eastwest;whiteSpace=wrap;html=1;" vertex="1" parent="ftjl0fwhTUzBAWV4eIJw-33">
          <mxGeometry y="130" width="190" height="26" as="geometry" />
        </mxCell>
        <mxCell id="ftjl0fwhTUzBAWV4eIJw-39" value="+&amp;nbsp;&lt;span style=&quot;color: rgb(15, 104, 160); font-family: Menlo; background-color: rgb(255, 255, 255);&quot;&gt;nationality&lt;/span&gt;:&amp;nbsp;&lt;span style=&quot;caret-color: rgb(57, 0, 160); color: rgb(57, 0, 160); font-family: Menlo; background-color: rgb(255, 255, 255);&quot;&gt;String&lt;/span&gt;" style="text;strokeColor=none;fillColor=none;align=left;verticalAlign=top;spacingLeft=4;spacingRight=4;overflow=hidden;rotatable=0;points=[[0,0.5],[1,0.5]];portConstraint=eastwest;whiteSpace=wrap;html=1;" vertex="1" parent="ftjl0fwhTUzBAWV4eIJw-33">
          <mxGeometry y="156" width="190" height="26" as="geometry" />
        </mxCell>
        <mxCell id="ftjl0fwhTUzBAWV4eIJw-53" style="edgeStyle=orthogonalEdgeStyle;rounded=0;orthogonalLoop=1;jettySize=auto;html=1;exitX=1;exitY=0.25;exitDx=0;exitDy=0;entryX=0;entryY=0.5;entryDx=0;entryDy=0;" edge="1" parent="WIyWlLk6GJQsqaUBKTNV-1" source="ftjl0fwhTUzBAWV4eIJw-49" target="ftjl0fwhTUzBAWV4eIJw-35">
          <mxGeometry relative="1" as="geometry" />
        </mxCell>
        <mxCell id="ftjl0fwhTUzBAWV4eIJw-54" style="edgeStyle=orthogonalEdgeStyle;rounded=0;orthogonalLoop=1;jettySize=auto;html=1;exitX=1;exitY=0.25;exitDx=0;exitDy=0;entryX=0;entryY=0.5;entryDx=0;entryDy=0;" edge="1" parent="WIyWlLk6GJQsqaUBKTNV-1" source="ftjl0fwhTUzBAWV4eIJw-49" target="ftjl0fwhTUzBAWV4eIJw-36">
          <mxGeometry relative="1" as="geometry" />
        </mxCell>
        <mxCell id="ftjl0fwhTUzBAWV4eIJw-55" style="edgeStyle=orthogonalEdgeStyle;rounded=0;orthogonalLoop=1;jettySize=auto;html=1;exitX=1;exitY=0.25;exitDx=0;exitDy=0;entryX=0;entryY=0.5;entryDx=0;entryDy=0;" edge="1" parent="WIyWlLk6GJQsqaUBKTNV-1" source="ftjl0fwhTUzBAWV4eIJw-49" target="ftjl0fwhTUzBAWV4eIJw-37">
          <mxGeometry relative="1" as="geometry" />
        </mxCell>
        <mxCell id="ftjl0fwhTUzBAWV4eIJw-56" style="edgeStyle=orthogonalEdgeStyle;rounded=0;orthogonalLoop=1;jettySize=auto;html=1;exitX=1;exitY=0.25;exitDx=0;exitDy=0;entryX=0;entryY=0.5;entryDx=0;entryDy=0;" edge="1" parent="WIyWlLk6GJQsqaUBKTNV-1" source="ftjl0fwhTUzBAWV4eIJw-49" target="ftjl0fwhTUzBAWV4eIJw-38">
          <mxGeometry relative="1" as="geometry" />
        </mxCell>
        <mxCell id="ftjl0fwhTUzBAWV4eIJw-49" value="&lt;p style=&quot;margin: 0px; font-style: normal; font-variant-caps: normal; font-stretch: normal; line-height: normal; font-family: Menlo; font-size-adjust: none; font-kerning: auto; font-variant-alternates: normal; font-variant-ligatures: normal; font-variant-numeric: normal; font-variant-east-asian: normal; font-variant-position: normal; font-variant-emoji: normal; font-feature-settings: normal; font-optical-sizing: auto; font-variation-settings: normal; color: rgb(11, 79, 121); background-color: rgb(255, 255, 255);&quot;&gt;ProfileName&lt;/p&gt;" style="swimlane;fontStyle=0;childLayout=stackLayout;horizontal=1;startSize=26;fillColor=none;horizontalStack=0;resizeParent=1;resizeParentMax=0;resizeLast=0;collapsible=1;marginBottom=0;whiteSpace=wrap;html=1;" vertex="1" parent="WIyWlLk6GJQsqaUBKTNV-1">
          <mxGeometry x="10" y="228" width="140" height="78" as="geometry" />
        </mxCell>
        <mxCell id="ftjl0fwhTUzBAWV4eIJw-50" value="+&amp;nbsp;&lt;span style=&quot;color: rgb(15, 104, 160); font-family: Menlo; background-color: rgb(255, 255, 255);&quot;&gt;enName&lt;/span&gt;:&amp;nbsp;&lt;span style=&quot;caret-color: rgb(57, 0, 160); color: rgb(57, 0, 160); font-family: Menlo; background-color: rgb(255, 255, 255);&quot;&gt;String&lt;/span&gt;" style="text;strokeColor=none;fillColor=none;align=left;verticalAlign=top;spacingLeft=4;spacingRight=4;overflow=hidden;rotatable=0;points=[[0,0.5],[1,0.5]];portConstraint=eastwest;whiteSpace=wrap;html=1;" vertex="1" parent="ftjl0fwhTUzBAWV4eIJw-49">
          <mxGeometry y="26" width="140" height="26" as="geometry" />
        </mxCell>
        <mxCell id="ftjl0fwhTUzBAWV4eIJw-51" value="+&amp;nbsp;&lt;span style=&quot;color: rgb(15, 104, 160); font-family: Menlo; background-color: rgb(255, 255, 255);&quot;&gt;arName&lt;/span&gt;:&amp;nbsp;&lt;span style=&quot;caret-color: rgb(57, 0, 160); color: rgb(57, 0, 160); font-family: Menlo; background-color: rgb(255, 255, 255);&quot;&gt;String&lt;/span&gt;" style="text;strokeColor=none;fillColor=none;align=left;verticalAlign=top;spacingLeft=4;spacingRight=4;overflow=hidden;rotatable=0;points=[[0,0.5],[1,0.5]];portConstraint=eastwest;whiteSpace=wrap;html=1;" vertex="1" parent="ftjl0fwhTUzBAWV4eIJw-49">
          <mxGeometry y="52" width="140" height="26" as="geometry" />
        </mxCell>
        <mxCell id="ftjl0fwhTUzBAWV4eIJw-57" value="&lt;p style=&quot;margin: 0px; font-style: normal; font-variant-caps: normal; font-stretch: normal; line-height: normal; font-family: Menlo; font-size-adjust: none; font-kerning: auto; font-variant-alternates: normal; font-variant-ligatures: normal; font-variant-numeric: normal; font-variant-east-asian: normal; font-variant-position: normal; font-feature-settings: normal; font-optical-sizing: auto; font-variation-settings: normal; color: rgb(11, 79, 121); background-color: rgb(255, 255, 255);&quot;&gt;Gender&lt;/p&gt;" style="swimlane;fontStyle=0;childLayout=stackLayout;horizontal=1;startSize=26;fillColor=none;horizontalStack=0;resizeParent=1;resizeParentMax=0;resizeLast=0;collapsible=1;marginBottom=0;whiteSpace=wrap;html=1;" vertex="1" parent="WIyWlLk6GJQsqaUBKTNV-1">
          <mxGeometry x="455" y="510" width="140" height="104" as="geometry" />
        </mxCell>
        <mxCell id="ftjl0fwhTUzBAWV4eIJw-58" value="&lt;span style=&quot;color: rgb(15, 104, 160); font-family: Menlo; background-color: rgb(255, 255, 255);&quot;&gt;male&lt;/span&gt;" style="text;strokeColor=none;fillColor=none;align=left;verticalAlign=top;spacingLeft=4;spacingRight=4;overflow=hidden;rotatable=0;points=[[0,0.5],[1,0.5]];portConstraint=eastwest;whiteSpace=wrap;html=1;" vertex="1" parent="ftjl0fwhTUzBAWV4eIJw-57">
          <mxGeometry y="26" width="140" height="26" as="geometry" />
        </mxCell>
        <mxCell id="ftjl0fwhTUzBAWV4eIJw-63" value="&lt;span style=&quot;color: rgb(15, 104, 160); font-family: Menlo; background-color: rgb(255, 255, 255);&quot;&gt;female&lt;/span&gt;" style="text;strokeColor=none;fillColor=none;align=left;verticalAlign=top;spacingLeft=4;spacingRight=4;overflow=hidden;rotatable=0;points=[[0,0.5],[1,0.5]];portConstraint=eastwest;whiteSpace=wrap;html=1;" vertex="1" parent="ftjl0fwhTUzBAWV4eIJw-57">
          <mxGeometry y="52" width="140" height="26" as="geometry" />
        </mxCell>
        <mxCell id="ftjl0fwhTUzBAWV4eIJw-64" value="&lt;span style=&quot;color: rgb(15, 104, 160); font-family: Menlo; background-color: rgb(255, 255, 255);&quot;&gt;unkown&lt;/span&gt;" style="text;strokeColor=none;fillColor=none;align=left;verticalAlign=top;spacingLeft=4;spacingRight=4;overflow=hidden;rotatable=0;points=[[0,0.5],[1,0.5]];portConstraint=eastwest;whiteSpace=wrap;html=1;" vertex="1" parent="ftjl0fwhTUzBAWV4eIJw-57">
          <mxGeometry y="78" width="140" height="26" as="geometry" />
        </mxCell>
        <mxCell id="ftjl0fwhTUzBAWV4eIJw-65" value="&lt;p style=&quot;margin: 0px; font-style: normal; font-variant-caps: normal; font-stretch: normal; line-height: normal; font-family: Menlo; font-size-adjust: none; font-kerning: auto; font-variant-alternates: normal; font-variant-ligatures: normal; font-variant-numeric: normal; font-variant-east-asian: normal; font-variant-position: normal; font-feature-settings: normal; font-optical-sizing: auto; font-variation-settings: normal; color: rgb(11, 79, 121); background-color: rgb(255, 255, 255);&quot;&gt;ProfileType&lt;/p&gt;" style="swimlane;fontStyle=0;childLayout=stackLayout;horizontal=1;startSize=26;fillColor=none;horizontalStack=0;resizeParent=1;resizeParentMax=0;resizeLast=0;collapsible=1;marginBottom=0;whiteSpace=wrap;html=1;" vertex="1" parent="WIyWlLk6GJQsqaUBKTNV-1">
          <mxGeometry x="680" y="150" width="140" height="78" as="geometry" />
        </mxCell>
        <mxCell id="ftjl0fwhTUzBAWV4eIJw-66" value="&lt;span style=&quot;color: rgb(15, 104, 160); font-family: Menlo; background-color: rgb(255, 255, 255);&quot;&gt;resident&lt;/span&gt;" style="text;strokeColor=none;fillColor=none;align=left;verticalAlign=top;spacingLeft=4;spacingRight=4;overflow=hidden;rotatable=0;points=[[0,0.5],[1,0.5]];portConstraint=eastwest;whiteSpace=wrap;html=1;" vertex="1" parent="ftjl0fwhTUzBAWV4eIJw-65">
          <mxGeometry y="26" width="140" height="26" as="geometry" />
        </mxCell>
        <mxCell id="ftjl0fwhTUzBAWV4eIJw-67" value="&lt;font face=&quot;Menlo&quot; color=&quot;#0f68a0&quot;&gt;&lt;span style=&quot;caret-color: rgb(15, 104, 160); background-color: rgb(255, 255, 255);&quot;&gt;visitor&lt;/span&gt;&lt;/font&gt;" style="text;strokeColor=none;fillColor=none;align=left;verticalAlign=top;spacingLeft=4;spacingRight=4;overflow=hidden;rotatable=0;points=[[0,0.5],[1,0.5]];portConstraint=eastwest;whiteSpace=wrap;html=1;" vertex="1" parent="ftjl0fwhTUzBAWV4eIJw-65">
          <mxGeometry y="52" width="140" height="26" as="geometry" />
        </mxCell>
        <mxCell id="ftjl0fwhTUzBAWV4eIJw-69" value="&lt;p style=&quot;margin: 0px; font-style: normal; font-variant-caps: normal; font-stretch: normal; line-height: normal; font-family: Menlo; font-size-adjust: none; font-kerning: auto; font-variant-alternates: normal; font-variant-ligatures: normal; font-variant-numeric: normal; font-variant-east-asian: normal; font-variant-position: normal; font-feature-settings: normal; font-optical-sizing: auto; font-variation-settings: normal; color: rgb(11, 79, 121); background-color: rgb(255, 255, 255);&quot;&gt;DocumentType&lt;/p&gt;" style="swimlane;fontStyle=0;childLayout=stackLayout;horizontal=1;startSize=26;fillColor=none;horizontalStack=0;resizeParent=1;resizeParentMax=0;resizeLast=0;collapsible=1;marginBottom=0;whiteSpace=wrap;html=1;" vertex="1" parent="WIyWlLk6GJQsqaUBKTNV-1">
          <mxGeometry x="660" y="440" width="140" height="104" as="geometry" />
        </mxCell>
        <mxCell id="ftjl0fwhTUzBAWV4eIJw-70" value="&lt;span style=&quot;color: rgb(15, 104, 160); font-family: Menlo; background-color: rgb(255, 255, 255);&quot;&gt;emiratesID&lt;/span&gt;" style="text;strokeColor=none;fillColor=none;align=left;verticalAlign=top;spacingLeft=4;spacingRight=4;overflow=hidden;rotatable=0;points=[[0,0.5],[1,0.5]];portConstraint=eastwest;whiteSpace=wrap;html=1;" vertex="1" parent="ftjl0fwhTUzBAWV4eIJw-69">
          <mxGeometry y="26" width="140" height="26" as="geometry" />
        </mxCell>
        <mxCell id="ftjl0fwhTUzBAWV4eIJw-72" value="&lt;span style=&quot;color: rgb(15, 104, 160); font-family: Menlo; background-color: rgb(255, 255, 255);&quot;&gt;gcc&lt;/span&gt;" style="text;strokeColor=none;fillColor=none;align=left;verticalAlign=top;spacingLeft=4;spacingRight=4;overflow=hidden;rotatable=0;points=[[0,0.5],[1,0.5]];portConstraint=eastwest;whiteSpace=wrap;html=1;" vertex="1" parent="ftjl0fwhTUzBAWV4eIJw-69">
          <mxGeometry y="52" width="140" height="26" as="geometry" />
        </mxCell>
        <mxCell id="ftjl0fwhTUzBAWV4eIJw-71" value="&lt;font face=&quot;Menlo&quot; color=&quot;#0f68a0&quot;&gt;&lt;span style=&quot;caret-color: rgb(15, 104, 160); background-color: rgb(255, 255, 255);&quot;&gt;passport&lt;/span&gt;&lt;/font&gt;" style="text;strokeColor=none;fillColor=none;align=left;verticalAlign=top;spacingLeft=4;spacingRight=4;overflow=hidden;rotatable=0;points=[[0,0.5],[1,0.5]];portConstraint=eastwest;whiteSpace=wrap;html=1;" vertex="1" parent="ftjl0fwhTUzBAWV4eIJw-69">
          <mxGeometry y="78" width="140" height="26" as="geometry" />
        </mxCell>
        <mxCell id="ftjl0fwhTUzBAWV4eIJw-85" value="&lt;span style=&quot;caret-color: rgb(11, 79, 121); color: rgb(11, 79, 121); font-family: Menlo; font-weight: 400; background-color: rgb(255, 255, 255);&quot;&gt;Profile&lt;/span&gt;" style="swimlane;fontStyle=1;align=center;verticalAlign=top;childLayout=stackLayout;horizontal=1;startSize=26;horizontalStack=0;resizeParent=1;resizeParentMax=0;resizeLast=0;collapsible=1;marginBottom=0;whiteSpace=wrap;html=1;" vertex="1" parent="WIyWlLk6GJQsqaUBKTNV-1">
          <mxGeometry x="414" y="20" width="190" height="320" as="geometry" />
        </mxCell>
        <mxCell id="ftjl0fwhTUzBAWV4eIJw-98" value="+&amp;nbsp;&lt;span style=&quot;caret-color: rgb(15, 104, 160); color: rgb(15, 104, 160); font-family: Menlo; background-color: rgb(255, 255, 255);&quot;&gt;uuid&lt;/span&gt;:&amp;nbsp;&lt;span style=&quot;color: rgb(57, 0, 160); font-family: Menlo; background-color: rgb(255, 255, 255);&quot;&gt;String&lt;/span&gt;" style="text;strokeColor=none;fillColor=none;align=left;verticalAlign=top;spacingLeft=4;spacingRight=4;overflow=hidden;rotatable=0;points=[[0,0.5],[1,0.5]];portConstraint=eastwest;whiteSpace=wrap;html=1;" vertex="1" parent="ftjl0fwhTUzBAWV4eIJw-85">
          <mxGeometry y="26" width="190" height="26" as="geometry" />
        </mxCell>
        <mxCell id="ftjl0fwhTUzBAWV4eIJw-97" value="+&amp;nbsp;&lt;span style=&quot;color: rgb(15, 104, 160); font-family: Menlo; background-color: rgb(255, 255, 255);&quot;&gt;eidIssueDate&lt;/span&gt;:&amp;nbsp;&lt;span style=&quot;color: rgb(57, 0, 160); font-family: Menlo; background-color: rgb(255, 255, 255);&quot;&gt;String&lt;/span&gt;" style="text;strokeColor=none;fillColor=none;align=left;verticalAlign=top;spacingLeft=4;spacingRight=4;overflow=hidden;rotatable=0;points=[[0,0.5],[1,0.5]];portConstraint=eastwest;whiteSpace=wrap;html=1;" vertex="1" parent="ftjl0fwhTUzBAWV4eIJw-85">
          <mxGeometry y="52" width="190" height="26" as="geometry" />
        </mxCell>
        <mxCell id="ftjl0fwhTUzBAWV4eIJw-96" value="+&amp;nbsp;&lt;span style=&quot;color: rgb(15, 104, 160); font-family: Menlo; background-color: rgb(255, 255, 255);&quot;&gt;eidExpiryDate&lt;/span&gt;:&amp;nbsp;&lt;span style=&quot;color: rgb(57, 0, 160); font-family: Menlo; background-color: rgb(255, 255, 255);&quot;&gt;String&lt;/span&gt;" style="text;strokeColor=none;fillColor=none;align=left;verticalAlign=top;spacingLeft=4;spacingRight=4;overflow=hidden;rotatable=0;points=[[0,0.5],[1,0.5]];portConstraint=eastwest;whiteSpace=wrap;html=1;" vertex="1" parent="ftjl0fwhTUzBAWV4eIJw-85">
          <mxGeometry y="78" width="190" height="26" as="geometry" />
        </mxCell>
        <mxCell id="ftjl0fwhTUzBAWV4eIJw-95" value="+&amp;nbsp;&lt;span style=&quot;color: rgb(15, 104, 160); font-family: Menlo; background-color: rgb(255, 255, 255);&quot;&gt;idNumber&lt;/span&gt;:&amp;nbsp;&lt;span style=&quot;color: rgb(57, 0, 160); font-family: Menlo; background-color: rgb(255, 255, 255);&quot;&gt;String&lt;/span&gt;" style="text;strokeColor=none;fillColor=none;align=left;verticalAlign=top;spacingLeft=4;spacingRight=4;overflow=hidden;rotatable=0;points=[[0,0.5],[1,0.5]];portConstraint=eastwest;whiteSpace=wrap;html=1;" vertex="1" parent="ftjl0fwhTUzBAWV4eIJw-85">
          <mxGeometry y="104" width="190" height="26" as="geometry" />
        </mxCell>
        <mxCell id="ftjl0fwhTUzBAWV4eIJw-94" value="+&amp;nbsp;&lt;span style=&quot;color: rgb(15, 104, 160); font-family: Menlo; background-color: rgb(255, 255, 255);&quot;&gt;profileType&lt;/span&gt;:&amp;nbsp;&lt;span style=&quot;color: rgb(28, 70, 74); font-family: Menlo; background-color: rgb(255, 255, 255);&quot;&gt;ProfileType&lt;/span&gt;" style="text;strokeColor=none;fillColor=none;align=left;verticalAlign=top;spacingLeft=4;spacingRight=4;overflow=hidden;rotatable=0;points=[[0,0.5],[1,0.5]];portConstraint=eastwest;whiteSpace=wrap;html=1;" vertex="1" parent="ftjl0fwhTUzBAWV4eIJw-85">
          <mxGeometry y="130" width="190" height="26" as="geometry" />
        </mxCell>
        <mxCell id="ftjl0fwhTUzBAWV4eIJw-93" value="+&amp;nbsp;&lt;span style=&quot;color: rgb(15, 104, 160); font-family: Menlo; background-color: rgb(255, 255, 255);&quot;&gt;docType&lt;/span&gt;:&amp;nbsp;&lt;span style=&quot;caret-color: rgb(11, 79, 121); color: rgb(11, 79, 121); font-family: Menlo; text-align: center; background-color: rgb(255, 255, 255);&quot;&gt;DocumentType&lt;/span&gt;" style="text;strokeColor=none;fillColor=none;align=left;verticalAlign=top;spacingLeft=4;spacingRight=4;overflow=hidden;rotatable=0;points=[[0,0.5],[1,0.5]];portConstraint=eastwest;whiteSpace=wrap;html=1;" vertex="1" parent="ftjl0fwhTUzBAWV4eIJw-85">
          <mxGeometry y="156" width="190" height="26" as="geometry" />
        </mxCell>
        <mxCell id="ftjl0fwhTUzBAWV4eIJw-92" value="+&amp;nbsp;&lt;span style=&quot;color: rgb(15, 104, 160); font-family: Menlo; background-color: rgb(255, 255, 255);&quot;&gt;personalDetails&lt;/span&gt;:&amp;nbsp;&lt;span style=&quot;caret-color: rgb(11, 79, 121); color: rgb(11, 79, 121); font-family: Menlo; text-align: center; background-color: rgb(255, 255, 255);&quot;&gt;PersonalProfileDetails&lt;/span&gt;" style="text;strokeColor=none;fillColor=none;align=left;verticalAlign=top;spacingLeft=4;spacingRight=4;overflow=hidden;rotatable=0;points=[[0,0.5],[1,0.5]];portConstraint=eastwest;whiteSpace=wrap;html=1;" vertex="1" parent="ftjl0fwhTUzBAWV4eIJw-85">
          <mxGeometry y="182" width="190" height="26" as="geometry" />
        </mxCell>
        <mxCell id="ftjl0fwhTUzBAWV4eIJw-86" value="+&amp;nbsp;&lt;span style=&quot;color: rgb(15, 104, 160); font-family: Menlo; background-color: rgb(255, 255, 255);&quot;&gt;identityType&lt;/span&gt;:&amp;nbsp;&lt;span style=&quot;color: rgb(28, 70, 74); font-family: Menlo; background-color: rgb(255, 255, 255);&quot;&gt;IdentityType&lt;/span&gt;" style="text;strokeColor=none;fillColor=none;align=left;verticalAlign=top;spacingLeft=4;spacingRight=4;overflow=hidden;rotatable=0;points=[[0,0.5],[1,0.5]];portConstraint=eastwest;whiteSpace=wrap;html=1;" vertex="1" parent="ftjl0fwhTUzBAWV4eIJw-85">
          <mxGeometry y="208" width="190" height="26" as="geometry" />
        </mxCell>
        <mxCell id="ftjl0fwhTUzBAWV4eIJw-87" value="" style="line;strokeWidth=1;fillColor=none;align=left;verticalAlign=middle;spacingTop=-1;spacingLeft=3;spacingRight=3;rotatable=0;labelPosition=right;points=[];portConstraint=eastwest;strokeColor=inherit;" vertex="1" parent="ftjl0fwhTUzBAWV4eIJw-85">
          <mxGeometry y="234" width="190" height="8" as="geometry" />
        </mxCell>
        <mxCell id="ftjl0fwhTUzBAWV4eIJw-90" value="+ method(type): type" style="text;strokeColor=none;fillColor=none;align=left;verticalAlign=top;spacingLeft=4;spacingRight=4;overflow=hidden;rotatable=0;points=[[0,0.5],[1,0.5]];portConstraint=eastwest;whiteSpace=wrap;html=1;" vertex="1" parent="ftjl0fwhTUzBAWV4eIJw-85">
          <mxGeometry y="242" width="190" height="26" as="geometry" />
        </mxCell>
        <mxCell id="ftjl0fwhTUzBAWV4eIJw-91" value="+ method(type): type" style="text;strokeColor=none;fillColor=none;align=left;verticalAlign=top;spacingLeft=4;spacingRight=4;overflow=hidden;rotatable=0;points=[[0,0.5],[1,0.5]];portConstraint=eastwest;whiteSpace=wrap;html=1;" vertex="1" parent="ftjl0fwhTUzBAWV4eIJw-85">
          <mxGeometry y="268" width="190" height="26" as="geometry" />
        </mxCell>
        <mxCell id="ftjl0fwhTUzBAWV4eIJw-88" value="+ method(type): type" style="text;strokeColor=none;fillColor=none;align=left;verticalAlign=top;spacingLeft=4;spacingRight=4;overflow=hidden;rotatable=0;points=[[0,0.5],[1,0.5]];portConstraint=eastwest;whiteSpace=wrap;html=1;" vertex="1" parent="ftjl0fwhTUzBAWV4eIJw-85">
          <mxGeometry y="294" width="190" height="26" as="geometry" />
        </mxCell>
        <mxCell id="ftjl0fwhTUzBAWV4eIJw-99" style="edgeStyle=orthogonalEdgeStyle;rounded=0;orthogonalLoop=1;jettySize=auto;html=1;exitX=1;exitY=0.5;exitDx=0;exitDy=0;entryX=0;entryY=0.25;entryDx=0;entryDy=0;" edge="1" parent="WIyWlLk6GJQsqaUBKTNV-1" source="ftjl0fwhTUzBAWV4eIJw-94" target="ftjl0fwhTUzBAWV4eIJw-65">
          <mxGeometry relative="1" as="geometry" />
        </mxCell>
        <mxCell id="ftjl0fwhTUzBAWV4eIJw-100" style="edgeStyle=orthogonalEdgeStyle;rounded=0;orthogonalLoop=1;jettySize=auto;html=1;entryX=-0.004;entryY=0.178;entryDx=0;entryDy=0;entryPerimeter=0;" edge="1" parent="WIyWlLk6GJQsqaUBKTNV-1" source="ftjl0fwhTUzBAWV4eIJw-93" target="ftjl0fwhTUzBAWV4eIJw-69">
          <mxGeometry relative="1" as="geometry" />
        </mxCell>
        <mxCell id="ftjl0fwhTUzBAWV4eIJw-101" style="edgeStyle=orthogonalEdgeStyle;rounded=0;orthogonalLoop=1;jettySize=auto;html=1;entryX=1.006;entryY=0.089;entryDx=0;entryDy=0;entryPerimeter=0;" edge="1" parent="WIyWlLk6GJQsqaUBKTNV-1" source="ftjl0fwhTUzBAWV4eIJw-92" target="ftjl0fwhTUzBAWV4eIJw-33">
          <mxGeometry relative="1" as="geometry" />
        </mxCell>
        <mxCell id="ftjl0fwhTUzBAWV4eIJw-102" value="&lt;p style=&quot;margin: 0px; font-style: normal; font-variant-caps: normal; font-stretch: normal; line-height: normal; font-family: Menlo; font-size-adjust: none; font-kerning: auto; font-variant-alternates: normal; font-variant-ligatures: normal; font-variant-numeric: normal; font-variant-east-asian: normal; font-variant-position: normal; font-variant-emoji: normal; font-feature-settings: normal; font-optical-sizing: auto; font-variation-settings: normal; color: rgb(11, 79, 121); background-color: rgb(255, 255, 255);&quot;&gt;IdentityType&lt;/p&gt;" style="swimlane;fontStyle=0;childLayout=stackLayout;horizontal=1;startSize=26;fillColor=none;horizontalStack=0;resizeParent=1;resizeParentMax=0;resizeLast=0;collapsible=1;marginBottom=0;whiteSpace=wrap;html=1;" vertex="1" parent="WIyWlLk6GJQsqaUBKTNV-1">
          <mxGeometry x="680" y="240" width="140" height="182" as="geometry" />
        </mxCell>
        <mxCell id="ftjl0fwhTUzBAWV4eIJw-103" value="&lt;span style=&quot;color: rgb(15, 104, 160); font-family: Menlo; background-color: rgb(255, 255, 255);&quot;&gt;sop1&lt;/span&gt;" style="text;strokeColor=none;fillColor=none;align=left;verticalAlign=top;spacingLeft=4;spacingRight=4;overflow=hidden;rotatable=0;points=[[0,0.5],[1,0.5]];portConstraint=eastwest;whiteSpace=wrap;html=1;" vertex="1" parent="ftjl0fwhTUzBAWV4eIJw-102">
          <mxGeometry y="26" width="140" height="26" as="geometry" />
        </mxCell>
        <mxCell id="ftjl0fwhTUzBAWV4eIJw-106" value="&lt;span style=&quot;color: rgb(15, 104, 160); font-family: Menlo; background-color: rgb(255, 255, 255);&quot;&gt;sop2&lt;/span&gt;" style="text;strokeColor=none;fillColor=none;align=left;verticalAlign=top;spacingLeft=4;spacingRight=4;overflow=hidden;rotatable=0;points=[[0,0.5],[1,0.5]];portConstraint=eastwest;whiteSpace=wrap;html=1;" vertex="1" parent="ftjl0fwhTUzBAWV4eIJw-102">
          <mxGeometry y="52" width="140" height="26" as="geometry" />
        </mxCell>
        <mxCell id="ftjl0fwhTUzBAWV4eIJw-107" value="&lt;span style=&quot;color: rgb(15, 104, 160); font-family: Menlo; background-color: rgb(255, 255, 255);&quot;&gt;sop2Limited&lt;/span&gt;" style="text;strokeColor=none;fillColor=none;align=left;verticalAlign=top;spacingLeft=4;spacingRight=4;overflow=hidden;rotatable=0;points=[[0,0.5],[1,0.5]];portConstraint=eastwest;whiteSpace=wrap;html=1;" vertex="1" parent="ftjl0fwhTUzBAWV4eIJw-102">
          <mxGeometry y="78" width="140" height="26" as="geometry" />
        </mxCell>
        <mxCell id="ftjl0fwhTUzBAWV4eIJw-108" value="&lt;span style=&quot;color: rgb(15, 104, 160); font-family: Menlo; background-color: rgb(255, 255, 255);&quot;&gt;sop3&lt;/span&gt;" style="text;strokeColor=none;fillColor=none;align=left;verticalAlign=top;spacingLeft=4;spacingRight=4;overflow=hidden;rotatable=0;points=[[0,0.5],[1,0.5]];portConstraint=eastwest;whiteSpace=wrap;html=1;" vertex="1" parent="ftjl0fwhTUzBAWV4eIJw-102">
          <mxGeometry y="104" width="140" height="26" as="geometry" />
        </mxCell>
        <mxCell id="ftjl0fwhTUzBAWV4eIJw-104" value="&lt;span style=&quot;color: rgb(15, 104, 160); font-family: Menlo; background-color: rgb(255, 255, 255);&quot;&gt;sop3Limited&lt;/span&gt;" style="text;strokeColor=none;fillColor=none;align=left;verticalAlign=top;spacingLeft=4;spacingRight=4;overflow=hidden;rotatable=0;points=[[0,0.5],[1,0.5]];portConstraint=eastwest;whiteSpace=wrap;html=1;" vertex="1" parent="ftjl0fwhTUzBAWV4eIJw-102">
          <mxGeometry y="130" width="140" height="26" as="geometry" />
        </mxCell>
        <mxCell id="ftjl0fwhTUzBAWV4eIJw-105" value="&lt;font face=&quot;Menlo&quot; color=&quot;#0f68a0&quot;&gt;&lt;span style=&quot;caret-color: rgb(15, 104, 160); background-color: rgb(255, 255, 255);&quot;&gt;sop3Advanced&lt;/span&gt;&lt;/font&gt;" style="text;strokeColor=none;fillColor=none;align=left;verticalAlign=top;spacingLeft=4;spacingRight=4;overflow=hidden;rotatable=0;points=[[0,0.5],[1,0.5]];portConstraint=eastwest;whiteSpace=wrap;html=1;" vertex="1" parent="ftjl0fwhTUzBAWV4eIJw-102">
          <mxGeometry y="156" width="140" height="26" as="geometry" />
        </mxCell>
        <mxCell id="ftjl0fwhTUzBAWV4eIJw-109" style="edgeStyle=orthogonalEdgeStyle;rounded=0;orthogonalLoop=1;jettySize=auto;html=1;" edge="1" parent="WIyWlLk6GJQsqaUBKTNV-1" source="ftjl0fwhTUzBAWV4eIJw-86" target="ftjl0fwhTUzBAWV4eIJw-102">
          <mxGeometry relative="1" as="geometry" />
        </mxCell>
      </root>
    </mxGraphModel>
  </diagram>
</mxfile>
